<svg width="128" height="128" viewBox="0 0 128 128" fill="none" xmlns="http://www.w3.org/2000/svg">
<path d="M0 0.0335693H23.6505V128V128C10.5887 128 0 117.411 0 104.349V0.0335693Z" fill="#FFFFF2"/>
<path d="M128 89.7006L104.35 89.7006L104.317 0.0385273V0.0385273C117.378 0.0385273 127.971 10.6272 127.976 23.689L128 89.7006Z" fill="#FFFFF2"/>
<path d="M25 128C11.1929 128 0 116.807 0 103V103H90V128H25Z" fill="#FFFFF2"/>
<path d="M105.587 0.0254915C117.946 0.0300202 127.966 10.0531 127.966 22.4128V22.4128L35.9022 22.379V-4.17495e-05L105.587 0.0254915Z" fill="#FFFFF2"/>
<rect x="35.8979" y="35.5096" width="20.2718" height="54.0583" fill="#FFFFF2"/>
<rect x="70.1069" y="18.6163" width="20.2718" height="70.9515" fill="#FFFFF2"/>
<path d="M104 103H128V103C128 116.255 117.255 127 104 127V127V103Z" fill="#FFFFF2"/>
</svg>
