<svg width="128" height="128" viewBox="0 0 128 128" fill="none" xmlns="http://www.w3.org/2000/svg">
<circle cx="64" cy="64" r="64" fill="#F64A13"/>
<path d="M24 24.021H38.6354V103.209V103.209C30.5525 103.209 24 96.6565 24 88.5736V24.021Z" fill="#FFFEF5"/>
<path d="M103.209 79.5083L88.5736 79.5083L88.5532 24.0236V24.0236C96.6362 24.0236 103.191 30.5761 103.194 38.659L103.209 79.5083Z" fill="#FFFEF5"/>
<path d="M39.4195 103.209C30.9035 103.209 24 96.3052 24 87.7893V87.7893H79.9282V103.209H39.4195Z" fill="#FFFEF5"/>
<path d="M89.3394 24.0159C96.9877 24.0187 103.188 30.2212 103.188 37.8696V37.8696L46.2171 37.8487L46.2171 24.0001L89.3394 24.0159Z" fill="#FFFEF5"/>
<rect x="46.2144" y="45.9739" width="12.5446" height="33.4524" fill="#FFFEF5"/>
<rect x="67.3828" y="35.52" width="12.5446" height="43.9062" fill="#FFFEF5"/>
<path d="M88.5522 87.7896H103.188V87.7896C103.188 95.8725 96.6352 102.425 88.5522 102.425V102.425V87.7896Z" fill="#FFFEF5"/>
</svg>
